<mxfile host="app.diagrams.net" modified="2020-12-12T10:19:59.156Z" agent="5.0 (Windows NT 10.0; Win64; x64) AppleWebKit/537.36 (KHTML, like Gecko) Chrome/87.0.4280.88 Safari/537.36" etag="0UURncQfTEG85cNm4h41" version="14.0.1" type="github">
  <diagram id="C5RBs43oDa-KdzZeNtuy" name="Page-1">
    <mxGraphModel dx="1278" dy="548" grid="1" gridSize="10" guides="1" tooltips="1" connect="1" arrows="1" fold="1" page="1" pageScale="1" pageWidth="827" pageHeight="1169" math="0" shadow="0">
      <root>
        <mxCell id="WIyWlLk6GJQsqaUBKTNV-0" />
        <mxCell id="WIyWlLk6GJQsqaUBKTNV-1" parent="WIyWlLk6GJQsqaUBKTNV-0" />
        <mxCell id="KNYyTuKid_Axms05YIKe-3" value="" style="edgeStyle=orthogonalEdgeStyle;rounded=0;orthogonalLoop=1;jettySize=auto;html=1;" parent="WIyWlLk6GJQsqaUBKTNV-1" source="KNYyTuKid_Axms05YIKe-0" target="KNYyTuKid_Axms05YIKe-2" edge="1">
          <mxGeometry relative="1" as="geometry" />
        </mxCell>
        <mxCell id="KNYyTuKid_Axms05YIKe-0" value="入口" style="ellipse;whiteSpace=wrap;html=1;" parent="WIyWlLk6GJQsqaUBKTNV-1" vertex="1">
          <mxGeometry x="320" y="40" width="80" height="50" as="geometry" />
        </mxCell>
        <mxCell id="KNYyTuKid_Axms05YIKe-5" value="" style="edgeStyle=orthogonalEdgeStyle;rounded=0;orthogonalLoop=1;jettySize=auto;html=1;" parent="WIyWlLk6GJQsqaUBKTNV-1" source="KNYyTuKid_Axms05YIKe-2" target="KNYyTuKid_Axms05YIKe-4" edge="1">
          <mxGeometry relative="1" as="geometry" />
        </mxCell>
        <mxCell id="KNYyTuKid_Axms05YIKe-11" value="T" style="edgeLabel;html=1;align=center;verticalAlign=middle;resizable=0;points=[];" parent="KNYyTuKid_Axms05YIKe-5" vertex="1" connectable="0">
          <mxGeometry x="-0.5408" y="2" relative="1" as="geometry">
            <mxPoint as="offset" />
          </mxGeometry>
        </mxCell>
        <mxCell id="KNYyTuKid_Axms05YIKe-14" value="" style="edgeStyle=orthogonalEdgeStyle;rounded=0;orthogonalLoop=1;jettySize=auto;html=1;" parent="WIyWlLk6GJQsqaUBKTNV-1" source="KNYyTuKid_Axms05YIKe-2" target="KNYyTuKid_Axms05YIKe-13" edge="1">
          <mxGeometry relative="1" as="geometry" />
        </mxCell>
        <mxCell id="KNYyTuKid_Axms05YIKe-2" value="X1" style="rhombus;whiteSpace=wrap;html=1;" parent="WIyWlLk6GJQsqaUBKTNV-1" vertex="1">
          <mxGeometry x="320" y="130" width="80" height="70" as="geometry" />
        </mxCell>
        <mxCell id="KNYyTuKid_Axms05YIKe-7" value="" style="edgeStyle=orthogonalEdgeStyle;rounded=0;orthogonalLoop=1;jettySize=auto;html=1;" parent="WIyWlLk6GJQsqaUBKTNV-1" source="KNYyTuKid_Axms05YIKe-4" target="KNYyTuKid_Axms05YIKe-6" edge="1">
          <mxGeometry relative="1" as="geometry" />
        </mxCell>
        <mxCell id="KNYyTuKid_Axms05YIKe-12" value="F" style="edgeLabel;html=1;align=center;verticalAlign=middle;resizable=0;points=[];" parent="KNYyTuKid_Axms05YIKe-7" vertex="1" connectable="0">
          <mxGeometry x="-0.0639" y="-4" relative="1" as="geometry">
            <mxPoint as="offset" />
          </mxGeometry>
        </mxCell>
        <mxCell id="KNYyTuKid_Axms05YIKe-9" value="" style="edgeStyle=orthogonalEdgeStyle;rounded=0;orthogonalLoop=1;jettySize=auto;html=1;" parent="WIyWlLk6GJQsqaUBKTNV-1" source="KNYyTuKid_Axms05YIKe-4" target="KNYyTuKid_Axms05YIKe-8" edge="1">
          <mxGeometry relative="1" as="geometry" />
        </mxCell>
        <mxCell id="KNYyTuKid_Axms05YIKe-10" value="T" style="edgeLabel;html=1;align=center;verticalAlign=middle;resizable=0;points=[];" parent="KNYyTuKid_Axms05YIKe-9" vertex="1" connectable="0">
          <mxGeometry x="0.2379" y="1" relative="1" as="geometry">
            <mxPoint as="offset" />
          </mxGeometry>
        </mxCell>
        <mxCell id="KNYyTuKid_Axms05YIKe-4" value="X2" style="rhombus;whiteSpace=wrap;html=1;" parent="WIyWlLk6GJQsqaUBKTNV-1" vertex="1">
          <mxGeometry x="180" y="220" width="80" height="70" as="geometry" />
        </mxCell>
        <mxCell id="KNYyTuKid_Axms05YIKe-6" value="b" style="whiteSpace=wrap;html=1;" parent="WIyWlLk6GJQsqaUBKTNV-1" vertex="1">
          <mxGeometry x="280" y="300" width="80" height="60" as="geometry" />
        </mxCell>
        <mxCell id="KNYyTuKid_Axms05YIKe-8" value="a" style="whiteSpace=wrap;html=1;" parent="WIyWlLk6GJQsqaUBKTNV-1" vertex="1">
          <mxGeometry x="100" y="300" width="70" height="50" as="geometry" />
        </mxCell>
        <mxCell id="KNYyTuKid_Axms05YIKe-27" style="edgeStyle=orthogonalEdgeStyle;rounded=0;orthogonalLoop=1;jettySize=auto;html=1;exitX=0.5;exitY=1;exitDx=0;exitDy=0;entryX=0.5;entryY=0;entryDx=0;entryDy=0;" parent="WIyWlLk6GJQsqaUBKTNV-1" source="KNYyTuKid_Axms05YIKe-13" target="KNYyTuKid_Axms05YIKe-15" edge="1">
          <mxGeometry relative="1" as="geometry" />
        </mxCell>
        <mxCell id="KNYyTuKid_Axms05YIKe-13" value="c" style="whiteSpace=wrap;html=1;" parent="WIyWlLk6GJQsqaUBKTNV-1" vertex="1">
          <mxGeometry x="490" y="137.5" width="60" height="55" as="geometry" />
        </mxCell>
        <mxCell id="KNYyTuKid_Axms05YIKe-18" value="" style="edgeStyle=orthogonalEdgeStyle;rounded=0;orthogonalLoop=1;jettySize=auto;html=1;" parent="WIyWlLk6GJQsqaUBKTNV-1" source="KNYyTuKid_Axms05YIKe-15" target="KNYyTuKid_Axms05YIKe-17" edge="1">
          <mxGeometry relative="1" as="geometry" />
        </mxCell>
        <mxCell id="KNYyTuKid_Axms05YIKe-19" style="edgeStyle=orthogonalEdgeStyle;rounded=0;orthogonalLoop=1;jettySize=auto;html=1;" parent="WIyWlLk6GJQsqaUBKTNV-1" source="KNYyTuKid_Axms05YIKe-15" edge="1">
          <mxGeometry relative="1" as="geometry">
            <mxPoint x="360" y="120" as="targetPoint" />
            <Array as="points">
              <mxPoint x="670" y="245" />
              <mxPoint x="670" y="120" />
            </Array>
          </mxGeometry>
        </mxCell>
        <mxCell id="KNYyTuKid_Axms05YIKe-15" value="c" style="whiteSpace=wrap;html=1;" parent="WIyWlLk6GJQsqaUBKTNV-1" vertex="1">
          <mxGeometry x="490" y="220" width="65" height="50" as="geometry" />
        </mxCell>
        <mxCell id="KNYyTuKid_Axms05YIKe-20" style="edgeStyle=orthogonalEdgeStyle;rounded=0;orthogonalLoop=1;jettySize=auto;html=1;exitX=1;exitY=0.5;exitDx=0;exitDy=0;" parent="WIyWlLk6GJQsqaUBKTNV-1" source="KNYyTuKid_Axms05YIKe-17" edge="1">
          <mxGeometry relative="1" as="geometry">
            <mxPoint x="359.9999999999998" y="100" as="targetPoint" />
            <Array as="points">
              <mxPoint x="770" y="325" />
              <mxPoint x="770" y="100" />
            </Array>
          </mxGeometry>
        </mxCell>
        <mxCell id="KNYyTuKid_Axms05YIKe-30" value="" style="edgeStyle=orthogonalEdgeStyle;rounded=0;orthogonalLoop=1;jettySize=auto;html=1;" parent="WIyWlLk6GJQsqaUBKTNV-1" source="KNYyTuKid_Axms05YIKe-17" target="KNYyTuKid_Axms05YIKe-29" edge="1">
          <mxGeometry relative="1" as="geometry" />
        </mxCell>
        <mxCell id="KNYyTuKid_Axms05YIKe-17" value="c" style="whiteSpace=wrap;html=1;" parent="WIyWlLk6GJQsqaUBKTNV-1" vertex="1">
          <mxGeometry x="492.5" y="300" width="60" height="50" as="geometry" />
        </mxCell>
        <mxCell id="KNYyTuKid_Axms05YIKe-32" value="T" style="edgeStyle=orthogonalEdgeStyle;rounded=0;orthogonalLoop=1;jettySize=auto;html=1;exitX=1;exitY=0.5;exitDx=0;exitDy=0;" parent="WIyWlLk6GJQsqaUBKTNV-1" source="KNYyTuKid_Axms05YIKe-29" target="KNYyTuKid_Axms05YIKe-31" edge="1">
          <mxGeometry relative="1" as="geometry">
            <mxPoint x="570" y="430" as="sourcePoint" />
          </mxGeometry>
        </mxCell>
        <mxCell id="KNYyTuKid_Axms05YIKe-29" value="f" style="rhombus;whiteSpace=wrap;html=1;" parent="WIyWlLk6GJQsqaUBKTNV-1" vertex="1">
          <mxGeometry x="487.5" y="380" width="70" height="50" as="geometry" />
        </mxCell>
        <mxCell id="KNYyTuKid_Axms05YIKe-34" value="" style="edgeStyle=orthogonalEdgeStyle;rounded=0;orthogonalLoop=1;jettySize=auto;html=1;" parent="WIyWlLk6GJQsqaUBKTNV-1" source="KNYyTuKid_Axms05YIKe-31" target="KNYyTuKid_Axms05YIKe-33" edge="1">
          <mxGeometry relative="1" as="geometry" />
        </mxCell>
        <mxCell id="KNYyTuKid_Axms05YIKe-31" value="g" style="whiteSpace=wrap;html=1;" parent="WIyWlLk6GJQsqaUBKTNV-1" vertex="1">
          <mxGeometry x="552.5" y="450" width="52.5" height="40" as="geometry" />
        </mxCell>
        <mxCell id="KNYyTuKid_Axms05YIKe-36" value="T" style="edgeStyle=orthogonalEdgeStyle;rounded=0;orthogonalLoop=1;jettySize=auto;html=1;" parent="WIyWlLk6GJQsqaUBKTNV-1" source="KNYyTuKid_Axms05YIKe-33" target="KNYyTuKid_Axms05YIKe-35" edge="1">
          <mxGeometry relative="1" as="geometry" />
        </mxCell>
        <mxCell id="KNYyTuKid_Axms05YIKe-39" value="F" style="edgeStyle=orthogonalEdgeStyle;rounded=0;orthogonalLoop=1;jettySize=auto;html=1;" parent="WIyWlLk6GJQsqaUBKTNV-1" source="KNYyTuKid_Axms05YIKe-33" edge="1">
          <mxGeometry relative="1" as="geometry">
            <mxPoint x="660" y="545" as="targetPoint" />
          </mxGeometry>
        </mxCell>
        <mxCell id="KNYyTuKid_Axms05YIKe-33" value="X3" style="rhombus;whiteSpace=wrap;html=1;" parent="WIyWlLk6GJQsqaUBKTNV-1" vertex="1">
          <mxGeometry x="540" y="520" width="77.5" height="50" as="geometry" />
        </mxCell>
        <mxCell id="KNYyTuKid_Axms05YIKe-38" style="edgeStyle=orthogonalEdgeStyle;rounded=0;orthogonalLoop=1;jettySize=auto;html=1;" parent="WIyWlLk6GJQsqaUBKTNV-1" source="KNYyTuKid_Axms05YIKe-35" edge="1">
          <mxGeometry relative="1" as="geometry">
            <mxPoint x="523" y="360" as="targetPoint" />
            <Array as="points">
              <mxPoint x="660" y="630" />
              <mxPoint x="660" y="360" />
            </Array>
          </mxGeometry>
        </mxCell>
        <mxCell id="KNYyTuKid_Axms05YIKe-35" value="h" style="whiteSpace=wrap;html=1;" parent="WIyWlLk6GJQsqaUBKTNV-1" vertex="1">
          <mxGeometry x="548.75" y="600" width="60" height="40" as="geometry" />
        </mxCell>
      </root>
    </mxGraphModel>
  </diagram>
</mxfile>
